<?xml version="1.0" encoding="utf-8"?>
<!-- Generator: Adobe Illustrator 26.0.1, SVG Export Plug-In . SVG Version: 6.00 Build 0)  -->
<svg version="1.1" xmlns="http://www.w3.org/2000/svg" xmlns:xlink="http://www.w3.org/1999/xlink" x="0px" y="0px"
	 viewBox="0 0 335.5 234.6" style="enable-background:new 0 0 335.5 234.6;" xml:space="preserve">
<style type="text/css">
	.st0{fill:#1D283A;}
	.st1{fill:#F7F7F9;}
	.st2{fill:#6E51E3;}
</style>
<g id="Calque_2">
	<rect x="0" class="st0" width="335.5" height="234.6"/>
</g>
<g id="Calque_1">
	<path class="st1" d="M39.5,74.9c2.9-0.3,5.8,0.7,7.9,2.7c4.8,4.8,4,11.9,4,18.2l0.1,17.4c3.1,0.3,7.5,1,10.4,0
		c3.3-1.2,6.4-3.2,9.8-0.8c5.1,3.6,1.5,13.1-4.7,11.1c-4-1.3-5-3.7-10-3.7c-7.4-0.1-5.3,1.9-5.7,7.4c-0.7,8.6,3.7,29.9-9.1,31.2
		c-4.6,0.5-13.2,0-17.4-2c-4.5-2.1-6.8-5.3-8.5-9.7h-0.2c-3.6-0.4-6.6-1.8-8.7-4.9c-2.4-3.5-2.5-7.7-3.6-11.6
		c-0.6-2.1-2.8-4.6-3.3-6.9c-1.7-6.2,0.2-10.1,2.3-15.7c0.3-0.7,0.7-5.1,1-6.3c1.2-5.4,3.5-6.7,7.8-9.4c1.2-2.7,2.4-5.9,4.2-8.2
		C20.2,78.1,32.6,75.6,39.5,74.9z M30.2,89.7c-0.4-2.8-0.6-4.8,0.5-7.5c-4.2,1.8-9.8,3.1-11.7,7.9c-3.8,9.6,8,7.1,12.6,10.7
		c1,1,1.8,2.2,2.3,3.5c1.7,2.3,0.6,9.6-3,8.4c-1.6-0.6-1.7-4.4-2.4-6.2c-4.8-4.3-10.1-0.6-15.6-8.6c-4.5,4.8-4.9,9.4-0.9,14.8
		c2,0.7,4,0.6,6.2,0.7l1.1,2.7c-0.4,1.3-0.7,2.3-2,2.9c-3.5,1.6-8.6-1-11-3.4c-0.2,1.9-0.1,3.9,0.1,5.8c1,6.6,8.9,7.5,14,5.1
		c3.4-1.7,5.1-4.7,9.1-5.4c2.2-0.5,4.8-0.1,5.1,2.4c0.6,4.4-4.8,3.3-7,3.7c-2.4,0.4-4.8,3-6.7,4.3c-2.6,1.7-7.5,1.6-10.6,1.6
		c0.9,3.7,1.9,7.1,5.9,8.2l3.4-1.7l2.4,1.3c0.1,1.5,0.1,5.2,0.8,6.2c1.6,2.3,3.8,4.2,6.3,5.4l0.6-0.1c-0.1-1.4-0.2-2.9-0.5-4.3
		c-0.3-4.3,0.4-9.3,4.1-12.1c3.3-2.5,6.7-0.6,4.6,3.5c-0.8,1.6-2,3.1-2.2,4.8c-0.4,2.6-0.2,5.2,0.6,7.8c5.9,2.2,9.1,0.3,9.1-6.2
		c0-5.6,0-11.3,0-16.9V85c-1.2-2.2-2.6-4.3-5.3-4.2c-1.3,0.6-3.4,1.4-3.7,2.7c-0.7,2.7,0.2,6.3-2.1,8.4
		C32.2,92.4,31.3,91.1,30.2,89.7z"/>
	<path class="st1" d="M299.4,88.8c-0.1-2.7-0.5-12.9,0.4-14.8c6.3-6,4.5,12.6,4.4,15c12-1.6,17.1,2.1,16,14.5
		c2.7,0.1,12.5-0.3,14.4,0.4c1.1,0.8,1.4,2.4,0.5,3.5c-0.5,0.7-1.3,1-2.1,1c-4,0.3-8.9,0.1-12.9,0.1c0.2,2,0.3,4.1,0.2,6.1
		c2.6-0.4,11.5-0.6,13.9,0.4c0.9,1.1,1,2.7,0.2,3.9c-1.5,0.6-11.4,0.5-14.3,0.6c0.2,1.8,0.3,3.5,0.2,5.3c3.1,0,18.4-1.9,14.6,4.3
		c-1.7,1.2-11.9,0.7-14.6,0.6c0.2,2.2-0.1,4.3-0.8,6.4c-3.5,5.8-9.1,5.5-15.2,4.7c0.1,3.4,0.6,14.9-0.7,16.2c-5.8,6-4.3-14.4-4.2-16
		c-2.2-0.1-4.1,0-6.4-0.1c0.2,2.9,1.5,17.3-2.4,17.1c-5.5-0.3-1.2-14.8-3.2-16.9c-1-0.3-7.8-0.1-9.3,0c-11.1,0.3-9.8-10-9.7-17.7
		c0.1-8.5-0.2-17.3,0.2-25.8c0.3-7.1,6.2-8.8,12.2-8.7c2.5,0.1,4.9-0.1,7.3,0.2c-0.4-2.6-0.8-11.8,0.2-14.6c0.3-0.8,1.3-1.2,2.1-1.4
		c4.5,0.3,2.4,9.3,2.9,12.2c0,1.2-0.1,2.4-0.3,3.6C295,88.9,297.3,88.8,299.4,88.8z M274.5,97c-0.2,4.1-0.2,11.6-0.1,15.8
		c0,4.7-0.5,17.7,0.7,21.6c8.8,2,25.5,0.3,35.1,0.7c2.4-0.1,3.7-0.3,3.8-3.1c0.3-6.2,0-12.4,0.1-18.6c0-5.2,0.1-10.5,0-15.7
		c0-0.3-0.1-1-0.2-1.3c-0.6-0.6-1.1-1.1-1.8-1.6l-22.4-0.1c-2.9,0-8.8-0.1-11.6,0.1C275.9,95.1,275.8,95.2,274.5,97L274.5,97z"/>
	<path class="st1" d="M287.8,102.6c3.1-0.2,14.3-0.5,17.3,1.1c0.8,1,1.3,2.2,1.3,3.5c-0.1,5,1.1,14.6-1.1,19.1c-0.5,1-3.4,1-4.5,1
		c-1.5,0-4.6,0-5.8,0c-13.6,0.8-13.2-0.6-12.9-13.5C282.1,107.6,280.5,103.5,287.8,102.6z"/>
	<path class="st1" d="M138.8,87.6c2.3,0.4,11.7,0.1,15,0.1c9.7-0.2,19.9,1.2,26.9,8.5c7.9,8.1,8.3,22,5.1,32.3
		c-1.2,3.7-3.4,7-6.2,9.6c-10.3,10.2-27.8,5.6-40.5,7.1h-0.4c-0.3-3.2-0.3-7.3-0.3-10.6V99C138.6,97.2,138.3,88.6,138.8,87.6z
		 M148.5,136.5c8.5-0.3,16.6,1.6,23.5-4.6c1.8-1.9,3.2-4.2,3.9-6.7c2.1-8,2-19.3-4.8-25.1c-6-5.1-15.4-4.3-22.7-4.3
		c0.2,12.5,0,25,0.1,37.5C148.6,134.3,148.6,135.4,148.5,136.5L148.5,136.5z"/>
	<path class="st1" d="M56.7,134.3c0.6,0.1,1.2,0.2,1.7,0.4c2,1.4,2.9,7.5,3.5,9.8c1.1,4,2.4,7.9,4,11.8c1.6,4.4,4.2,8.5,6.2,12.7
		c20.3,41.6,68,63.8,113.1,57.5c5.6-0.8,12-1.7,17.5-3.9c2.1-9,9.2-12.8,16.6-6.3c1.8-1.3,7-4,9.4-5.4c8.1-4.9,19.8-13.9,25.5-21.5
		c-0.6-7.5-0.4-13.1,9.1-12.5c1.7-2.7,3-5.8,4.5-8.5c3-5.2,4.9-10.6,7.2-16.1c0.5-1.5,2.2-2.4,3.7-1.8c0,0,0.1,0,0.1,0
		c3.7,1.6,2,5.5,1,8.1c-1.3,7.6-8.4,16.2-11.5,22.4c3.9,7.1-1.2,11.4-8,12.4c-1.8,2.1-3.7,4.2-5.7,6.1c-10.1,10.6-20.1,17.1-33,23.6
		c-2.9,9.1-7.7,10.8-16.1,6.5c-11.5,3.2-22.5,5.2-34.4,4.8c-5.2-0.2-10.9,0.3-16-0.4c-30.6-3.9-59.7-18.9-78.2-43.9
		c-10-13.4-18.1-29.1-22.2-45.3C53.8,141.1,51.7,135.5,56.7,134.3z"/>
	<path class="st1" d="M164.4-0.1c30-1.5,62.8,9.1,85,29.8c12.9,12,26.7,30.2,31.5,47.3c-3.6,8.6-7.3,0-9-3.9
		c-22.3-49.7-73.6-74-126.5-63.3c-9.6,2.1-18.9,5.5-27.6,10C89.4,34.4,67.6,61.6,61.2,93.1c-0.8,3.8-0.9,7.9-1.9,11.6
		c-0.5,1.6-1.7,2.1-3.1,2.8c-2.4-1.3-3.3-2.1-3.5-5.1c-0.2-3.5,0.9-7,1.5-10.4c3.6-20.4,13.7-38.8,27.6-54
		C98.2,20,118.8,8.5,142.5,3.2C149.7,1.4,157,0.3,164.4-0.1z"/>
	<path class="st1" d="M87.7,87.5c2.2,0.2,4.3,0.3,6.5,0.2c7,0.3,15.5-0.6,22.3,0.6c6.1,1.6,10.9,5.4,11.3,12
		c0.5,7.9-2.1,11.4-8.8,15.2c10.1,3.3,13.6,10.1,10.6,20.3c-4.3,9-12.5,9-21,9c-6.5,0-14.4-0.4-20.8,0.4c-0.2-17,0.1-34-0.1-50.9
		C87.7,92,87.7,89.7,87.7,87.5z M117.5,134.6c1.9-1.9,2.8-4.5,2.6-7.1c-0.3-9.3-16-8-22.5-8c0.1,3,0.3,15-0.1,17.8
		C103.7,137.4,112.6,138.1,117.5,134.6L117.5,134.6z M97.7,112.2c5.7-0.8,12.1,1.1,17.3-2.4c1.7-1.4,2.4-2.2,2.7-4.4
		c1.8-12.4-12.3-9.4-20.1-9.7C97.9,100.7,97.8,107.2,97.7,112.2z"/>
	<path class="st1" d="M211.1,87.1c4.8-0.5,12.1,0.5,16.1,3.3c5.3,3.6,6,7.5,7.2,13.2c-3.2-0.1-6.6-0.1-9.8,0
		c-1.8-4.1-3.5-6.9-8.4-7.8c-4.6-0.8-12.4,0.4-12.8,6.2c-0.6,8.6,14.4,9,20.2,11.6c3.3,1.5,6.2,2.6,8.4,5.6
		c4.9,6.5,3.9,17.2-2.7,22.2c-4.6,3.5-12.3,5-17.8,4.3c-7.2-0.3-15.1-3.4-18.5-10c-1.5-2.9-1.8-5.7-2.2-8.9
		c2.8,0.3,7.5,0.1,10.5,0.2c0.3,2.7,1.5,5.1,3.4,7c4.2,4.2,14.3,4.7,18.5,0.2c1.9-2,1.9-4,1.8-6.6c-0.5-1-1.2-1.9-1.9-2.7
		c-7.3-6.2-17.4-4.4-25.1-10.4c-6-4.7-6.6-15.5-1.8-21.4C199.7,88.6,205.6,87.6,211.1,87.1z"/>
	<path class="st1" d="M251.7,87.4c0.1,0,0.6,0.1,0.7,0.1c0.4,0.4,0.6,1,0.5,1.6c0.2,8.3,0.2,16.7,0.1,25c-0.1,10.3,0.2,20.7,0,31
		c-2.7-0.2-5.7-0.2-8.4-0.2c-0.5,0.1-1.1,0.1-1.6-0.1c-0.6-1.2-0.2-51-0.2-57.1C245.6,87.6,248.7,87.4,251.7,87.4z"/>
	<path class="st2" d="M203.1,224.8"/>
	<path class="st2" d="M206.1,216.9c-2.8,2.6-4,6.1-3,9.1c0.7,1.9,2.2,3.5,4,4.4c5.2,2.9,11.2-0.5,11.8-0.8"/>
	<circle class="st1" cx="212.7" cy="222.9" r="10.4"/>
	<circle class="st1" cx="261.8" cy="184.9" r="9"/>
</g>
</svg>
